<mxfile host="app.diagrams.net" modified="2024-06-27T07:18:40.229Z" agent="Mozilla/5.0 (Windows NT 10.0; Win64; x64) AppleWebKit/537.36 (KHTML, like Gecko) Chrome/126.0.0.0 Safari/537.36" etag="VScpsTNW6pyKRyHS7Sum" version="24.6.3" type="device">
  <diagram id="C5RBs43oDa-KdzZeNtuy" name="Page-1">
    <mxGraphModel dx="1290" dy="522" grid="1" gridSize="10" guides="1" tooltips="1" connect="1" arrows="1" fold="1" page="1" pageScale="1" pageWidth="827" pageHeight="1169" math="0" shadow="0">
      <root>
        <mxCell id="WIyWlLk6GJQsqaUBKTNV-0" />
        <mxCell id="WIyWlLk6GJQsqaUBKTNV-1" parent="WIyWlLk6GJQsqaUBKTNV-0" />
        <mxCell id="PRZv4TfnZBLt8YBP0bfV-2" value="Airline" style="swimlane;whiteSpace=wrap;html=1;" vertex="1" parent="WIyWlLk6GJQsqaUBKTNV-1">
          <mxGeometry x="40" y="50" width="290" height="200" as="geometry" />
        </mxCell>
        <mxCell id="PRZv4TfnZBLt8YBP0bfV-9" value="&lt;table&gt;&lt;tbody&gt;&lt;tr&gt;&lt;td&gt;airlineID&lt;/td&gt;&lt;td&gt;INT&lt;/td&gt;&lt;td&gt;AUTO_INCREMENT, PRIMARY KEY&lt;/td&gt;&lt;/tr&gt;&lt;/tbody&gt;&lt;/table&gt;&lt;table&gt;&lt;tbody&gt;&lt;tr&gt;&lt;td&gt;name&lt;/td&gt;&lt;td&gt;VARCHAR(255)&lt;/td&gt;&lt;td&gt;UNIQUE, NOT NULL&lt;/td&gt;&lt;/tr&gt;&lt;/tbody&gt;&lt;/table&gt;" style="text;html=1;align=center;verticalAlign=middle;resizable=0;points=[];autosize=1;strokeColor=none;fillColor=none;" vertex="1" parent="PRZv4TfnZBLt8YBP0bfV-2">
          <mxGeometry x="-10" y="50" width="300" height="50" as="geometry" />
        </mxCell>
        <mxCell id="PRZv4TfnZBLt8YBP0bfV-3" value="User" style="swimlane;whiteSpace=wrap;html=1;" vertex="1" parent="WIyWlLk6GJQsqaUBKTNV-1">
          <mxGeometry x="360" y="40" width="270" height="200" as="geometry" />
        </mxCell>
        <mxCell id="PRZv4TfnZBLt8YBP0bfV-10" value="&lt;table&gt;&lt;tbody&gt;&lt;tr&gt;&lt;td&gt;userID&lt;/td&gt;&lt;td&gt;INT&lt;/td&gt;&lt;td&gt;AUTO_INCREMENT, PRIMARY KEY&lt;/td&gt;&lt;/tr&gt;&lt;/tbody&gt;&lt;/table&gt;&lt;table&gt;&lt;tbody&gt;&lt;tr&gt;&lt;td&gt;username&lt;/td&gt;&lt;td&gt;VARCHAR(50)&lt;/td&gt;&lt;td&gt;UNIQUE, NOT NULL&lt;/td&gt;&lt;/tr&gt;&lt;/tbody&gt;&lt;/table&gt;&lt;table&gt;&lt;tbody&gt;&lt;tr&gt;&lt;td&gt;password&lt;/td&gt;&lt;td&gt;VARCHAR(100)&lt;/td&gt;&lt;td&gt;NOT NULL&lt;/td&gt;&lt;/tr&gt;&lt;/tbody&gt;&lt;/table&gt;&lt;table&gt;&lt;tbody&gt;&lt;tr&gt;&lt;td&gt;email&lt;/td&gt;&lt;td&gt;VARCHAR(100)&lt;/td&gt;&lt;td&gt;UNIQUE, NOT NULL&lt;/td&gt;&lt;/tr&gt;&lt;/tbody&gt;&lt;/table&gt;&lt;table&gt;&lt;tbody&gt;&lt;tr&gt;&lt;td&gt;firstName&lt;/td&gt;&lt;td&gt;VARCHAR(50)&lt;/td&gt;&lt;td&gt;NOT NULL&lt;/td&gt;&lt;/tr&gt;&lt;/tbody&gt;&lt;/table&gt;&lt;table&gt;&lt;tbody&gt;&lt;tr&gt;&lt;td&gt;lastName&lt;/td&gt;&lt;td&gt;VARCHAR(50)&lt;/td&gt;&lt;td&gt;NOT NULL&lt;/td&gt;&lt;/tr&gt;&lt;/tbody&gt;&lt;/table&gt;&lt;table&gt;&lt;tbody&gt;&lt;tr&gt;&lt;td&gt;phone&lt;/td&gt;&lt;td&gt;VARCHAR(20)&lt;/td&gt;&lt;td&gt;&lt;/td&gt;&lt;/tr&gt;&lt;/tbody&gt;&lt;/table&gt;&lt;table&gt;&lt;tbody&gt;&lt;tr&gt;&lt;td&gt;address&lt;/td&gt;&lt;td&gt;VARCHAR(255)&lt;/td&gt;&lt;td&gt;&lt;/td&gt;&lt;/tr&gt;&lt;/tbody&gt;&lt;/table&gt;" style="text;html=1;align=center;verticalAlign=middle;resizable=0;points=[];autosize=1;strokeColor=none;fillColor=none;" vertex="1" parent="PRZv4TfnZBLt8YBP0bfV-3">
          <mxGeometry x="-10" y="25" width="290" height="170" as="geometry" />
        </mxCell>
        <mxCell id="PRZv4TfnZBLt8YBP0bfV-4" value="Localization" style="swimlane;whiteSpace=wrap;html=1;" vertex="1" parent="WIyWlLk6GJQsqaUBKTNV-1">
          <mxGeometry x="560" y="540" width="280" height="200" as="geometry" />
        </mxCell>
        <mxCell id="PRZv4TfnZBLt8YBP0bfV-15" value="&lt;table&gt;&lt;tbody&gt;&lt;tr&gt;&lt;td&gt;localeID&lt;/td&gt;&lt;td&gt;INT&lt;/td&gt;&lt;td&gt;AUTO_INCREMENT, PRIMARY KEY&lt;/td&gt;&lt;/tr&gt;&lt;/tbody&gt;&lt;/table&gt;&lt;table&gt;&lt;tbody&gt;&lt;tr&gt;&lt;td&gt;language&lt;/td&gt;&lt;td&gt;VARCHAR(255)&lt;/td&gt;&lt;td&gt;NOT NULL&lt;/td&gt;&lt;/tr&gt;&lt;/tbody&gt;&lt;/table&gt;&lt;table&gt;&lt;tbody&gt;&lt;tr&gt;&lt;td&gt;currency&lt;/td&gt;&lt;td&gt;VARCHAR(255)&lt;/td&gt;&lt;td&gt;NOT NULL&lt;/td&gt;&lt;/tr&gt;&lt;/tbody&gt;&lt;/table&gt;&lt;table&gt;&lt;tbody&gt;&lt;tr&gt;&lt;td&gt;timeZone&lt;/td&gt;&lt;td&gt;VARCHAR(255)&lt;/td&gt;&lt;td&gt;NOT NULL&lt;/td&gt;&lt;/tr&gt;&lt;/tbody&gt;&lt;/table&gt;" style="text;html=1;align=center;verticalAlign=middle;resizable=0;points=[];autosize=1;strokeColor=none;fillColor=none;" vertex="1" parent="PRZv4TfnZBLt8YBP0bfV-4">
          <mxGeometry x="-10" y="40" width="300" height="90" as="geometry" />
        </mxCell>
        <mxCell id="PRZv4TfnZBLt8YBP0bfV-5" value="Admin" style="swimlane;whiteSpace=wrap;html=1;" vertex="1" parent="WIyWlLk6GJQsqaUBKTNV-1">
          <mxGeometry x="50" y="300" width="285" height="200" as="geometry" />
        </mxCell>
        <mxCell id="PRZv4TfnZBLt8YBP0bfV-11" value="&lt;table&gt;&lt;tbody&gt;&lt;tr&gt;&lt;td&gt;adminID&lt;/td&gt;&lt;td&gt;INT&lt;/td&gt;&lt;td&gt;AUTO_INCREMENT, PRIMARY KEY&lt;/td&gt;&lt;/tr&gt;&lt;/tbody&gt;&lt;/table&gt;&lt;table&gt;&lt;tbody&gt;&lt;tr&gt;&lt;td&gt;username&lt;/td&gt;&lt;td&gt;VARCHAR(255)&lt;/td&gt;&lt;td&gt;UNIQUE, NOT NULL&lt;/td&gt;&lt;/tr&gt;&lt;/tbody&gt;&lt;/table&gt;&lt;table&gt;&lt;tbody&gt;&lt;tr&gt;&lt;td&gt;password&lt;/td&gt;&lt;td&gt;VARCHAR(255)&lt;/td&gt;&lt;td&gt;NOT NULL&lt;/td&gt;&lt;/tr&gt;&lt;/tbody&gt;&lt;/table&gt;&lt;table&gt;&lt;tbody&gt;&lt;tr&gt;&lt;td&gt;email&lt;/td&gt;&lt;td&gt;VARCHAR(255)&lt;/td&gt;&lt;td&gt;UNIQUE, NOT NULL&lt;/td&gt;&lt;/tr&gt;&lt;/tbody&gt;&lt;/table&gt;" style="text;html=1;align=center;verticalAlign=middle;resizable=0;points=[];autosize=1;strokeColor=none;fillColor=none;" vertex="1" parent="PRZv4TfnZBLt8YBP0bfV-5">
          <mxGeometry x="-10" y="55" width="300" height="90" as="geometry" />
        </mxCell>
        <mxCell id="PRZv4TfnZBLt8YBP0bfV-6" value="Flight" style="swimlane;whiteSpace=wrap;html=1;" vertex="1" parent="WIyWlLk6GJQsqaUBKTNV-1">
          <mxGeometry x="350" y="300" width="330" height="200" as="geometry" />
        </mxCell>
        <mxCell id="PRZv4TfnZBLt8YBP0bfV-12" value="&lt;table&gt;&lt;tbody&gt;&lt;tr&gt;&lt;td&gt;flightID&lt;/td&gt;&lt;td&gt;INT&lt;/td&gt;&lt;td&gt;AUTO_INCREMENT, PRIMARY KEY&lt;/td&gt;&lt;/tr&gt;&lt;/tbody&gt;&lt;/table&gt;&lt;table&gt;&lt;tbody&gt;&lt;tr&gt;&lt;td&gt;airlineID&lt;/td&gt;&lt;td&gt;INT&lt;/td&gt;&lt;td&gt;NOT NULL, FOREIGN KEY (Airlines.airlineID)&lt;/td&gt;&lt;/tr&gt;&lt;/tbody&gt;&lt;/table&gt;&lt;table&gt;&lt;tbody&gt;&lt;tr&gt;&lt;td&gt;departureCity&lt;/td&gt;&lt;td&gt;VARCHAR(255)&lt;/td&gt;&lt;td&gt;NOT NULL&lt;/td&gt;&lt;/tr&gt;&lt;/tbody&gt;&lt;/table&gt;&lt;table&gt;&lt;tbody&gt;&lt;tr&gt;&lt;td&gt;arrivalCity&lt;/td&gt;&lt;td&gt;VARCHAR(255)&lt;/td&gt;&lt;td&gt;NOT NULL&lt;/td&gt;&lt;/tr&gt;&lt;/tbody&gt;&lt;/table&gt;&lt;table&gt;&lt;tbody&gt;&lt;tr&gt;&lt;td&gt;departureTime&lt;/td&gt;&lt;td&gt;&lt;table&gt;&lt;tbody&gt;&lt;tr&gt;&lt;td&gt;datetime(6)&lt;/td&gt;&lt;/tr&gt;&lt;/tbody&gt;&lt;/table&gt;&lt;/td&gt;&lt;td&gt;NOT NULL&lt;/td&gt;&lt;/tr&gt;&lt;/tbody&gt;&lt;/table&gt;&lt;table&gt;&lt;tbody&gt;&lt;tr&gt;&lt;td&gt;totalSeats&lt;/td&gt;&lt;td&gt;INT&lt;/td&gt;&lt;td&gt;NOT NULL&lt;/td&gt;&lt;/tr&gt;&lt;/tbody&gt;&lt;/table&gt;&lt;table&gt;&lt;tbody&gt;&lt;tr&gt;&lt;td&gt;availableSeats&lt;/td&gt;&lt;td&gt;INT&lt;/td&gt;&lt;td&gt;NOT NULL&lt;/td&gt;&lt;/tr&gt;&lt;/tbody&gt;&lt;/table&gt;" style="text;html=1;align=center;verticalAlign=middle;resizable=0;points=[];autosize=1;strokeColor=none;fillColor=none;" vertex="1" parent="PRZv4TfnZBLt8YBP0bfV-6">
          <mxGeometry x="-10" y="20" width="340" height="160" as="geometry" />
        </mxCell>
        <mxCell id="PRZv4TfnZBLt8YBP0bfV-7" value="Payment" style="swimlane;whiteSpace=wrap;html=1;" vertex="1" parent="WIyWlLk6GJQsqaUBKTNV-1">
          <mxGeometry x="150" y="770" width="390" height="200" as="geometry" />
        </mxCell>
        <mxCell id="PRZv4TfnZBLt8YBP0bfV-14" value="&lt;table&gt;&lt;tbody&gt;&lt;tr&gt;&lt;td&gt;paymentID&lt;/td&gt;&lt;td&gt;INT&lt;/td&gt;&lt;td&gt;AUTO_INCREMENT, PRIMARY KEY&lt;/td&gt;&lt;/tr&gt;&lt;/tbody&gt;&lt;/table&gt;&lt;table&gt;&lt;tbody&gt;&lt;tr&gt;&lt;td&gt;bookingID&lt;/td&gt;&lt;td&gt;BIGINT&lt;/td&gt;&lt;td&gt;NOT NULL, FOREIGN KEY (Bookings.bookingID)&lt;/td&gt;&lt;/tr&gt;&lt;/tbody&gt;&lt;/table&gt;&lt;table&gt;&lt;tbody&gt;&lt;tr&gt;&lt;td&gt;paymentMethod&lt;/td&gt;&lt;td&gt;VARCHAR(255)&lt;/td&gt;&lt;td&gt;NOT NULL&lt;/td&gt;&lt;/tr&gt;&lt;/tbody&gt;&lt;/table&gt;&lt;table&gt;&lt;tbody&gt;&lt;tr&gt;&lt;td&gt;amount&lt;/td&gt;&lt;td&gt;DOUBLE&lt;/td&gt;&lt;td&gt;NOT NULL&lt;/td&gt;&lt;/tr&gt;&lt;/tbody&gt;&lt;/table&gt;&lt;table&gt;&lt;tbody&gt;&lt;tr&gt;&lt;td&gt;paymentDate&lt;/td&gt;&lt;td&gt;&lt;table&gt;&lt;tbody&gt;&lt;tr&gt;&lt;td&gt;datetime(6)&lt;/td&gt;&lt;/tr&gt;&lt;/tbody&gt;&lt;/table&gt;&lt;/td&gt;&lt;td&gt;NOT NULL&lt;/td&gt;&lt;/tr&gt;&lt;/tbody&gt;&lt;/table&gt;" style="text;html=1;align=center;verticalAlign=middle;resizable=0;points=[];autosize=1;strokeColor=none;fillColor=none;" vertex="1" parent="PRZv4TfnZBLt8YBP0bfV-7">
          <mxGeometry x="-10" y="40" width="400" height="120" as="geometry" />
        </mxCell>
        <mxCell id="PRZv4TfnZBLt8YBP0bfV-8" value="Booking" style="swimlane;whiteSpace=wrap;html=1;" vertex="1" parent="WIyWlLk6GJQsqaUBKTNV-1">
          <mxGeometry x="40" y="530" width="320" height="200" as="geometry" />
        </mxCell>
        <mxCell id="PRZv4TfnZBLt8YBP0bfV-13" value="&lt;table&gt;&lt;tbody&gt;&lt;tr&gt;&lt;td&gt;bookingID&lt;/td&gt;&lt;td&gt;BIGINT&lt;/td&gt;&lt;td&gt;AUTO_INCREMENT, PRIMARY KEY&lt;/td&gt;&lt;/tr&gt;&lt;/tbody&gt;&lt;/table&gt;&lt;table&gt;&lt;tbody&gt;&lt;tr&gt;&lt;td&gt;userID&lt;/td&gt;&lt;td&gt;INT&lt;/td&gt;&lt;td&gt;NOT NULL, FOREIGN KEY (Users.userID)&lt;/td&gt;&lt;/tr&gt;&lt;/tbody&gt;&lt;/table&gt;&lt;table&gt;&lt;tbody&gt;&lt;tr&gt;&lt;td&gt;flightID&lt;/td&gt;&lt;td&gt;INT&lt;/td&gt;&lt;td&gt;NOT NULL, FOREIGN KEY (Flights.flightID)&lt;/td&gt;&lt;/tr&gt;&lt;/tbody&gt;&lt;/table&gt;&lt;table&gt;&lt;tbody&gt;&lt;tr&gt;&lt;td&gt;cabinClass&lt;/td&gt;&lt;td&gt;VARCHAR(255)&lt;/td&gt;&lt;td&gt;NOT NULL&lt;/td&gt;&lt;/tr&gt;&lt;/tbody&gt;&lt;/table&gt;&lt;table&gt;&lt;tbody&gt;&lt;tr&gt;&lt;td&gt;seatNumber&lt;/td&gt;&lt;td&gt;VARCHAR(255)&lt;/td&gt;&lt;td&gt;NOT NULL&lt;/td&gt;&lt;/tr&gt;&lt;/tbody&gt;&lt;/table&gt;&lt;table&gt;&lt;tbody&gt;&lt;tr&gt;&lt;td&gt;bookingDate&lt;/td&gt;&lt;td&gt;&lt;table&gt;&lt;tbody&gt;&lt;tr&gt;&lt;td&gt;datetime(6)&lt;/td&gt;&lt;/tr&gt;&lt;/tbody&gt;&lt;/table&gt;&lt;/td&gt;&lt;td&gt;NOT NULL&lt;/td&gt;&lt;/tr&gt;&lt;/tbody&gt;&lt;/table&gt;&lt;table&gt;&lt;tbody&gt;&lt;tr&gt;&lt;td&gt;paymentStatus&lt;/td&gt;&lt;td&gt;VARCHAR(255)&lt;/td&gt;&lt;td&gt;NOT NULL&lt;/td&gt;&lt;/tr&gt;&lt;/tbody&gt;&lt;/table&gt;" style="text;html=1;align=center;verticalAlign=middle;resizable=0;points=[];autosize=1;strokeColor=none;fillColor=none;" vertex="1" parent="PRZv4TfnZBLt8YBP0bfV-8">
          <mxGeometry x="-10" y="20" width="330" height="160" as="geometry" />
        </mxCell>
        <mxCell id="PRZv4TfnZBLt8YBP0bfV-16" value="UserPreference" style="swimlane;whiteSpace=wrap;html=1;" vertex="1" parent="WIyWlLk6GJQsqaUBKTNV-1">
          <mxGeometry x="680" y="60" width="310" height="200" as="geometry" />
        </mxCell>
        <mxCell id="PRZv4TfnZBLt8YBP0bfV-17" value="&lt;table&gt;&lt;tbody&gt;&lt;tr&gt;&lt;td&gt;userID&lt;/td&gt;&lt;td&gt;INT&lt;/td&gt;&lt;td&gt;PRIMARY KEY, FOREIGN KEY (Users.userID)&lt;/td&gt;&lt;/tr&gt;&lt;/tbody&gt;&lt;/table&gt;&lt;table&gt;&lt;tbody&gt;&lt;tr&gt;&lt;td&gt;mealPreference&lt;/td&gt;&lt;td&gt;VARCHAR(255)&lt;/td&gt;&lt;td&gt;&lt;/td&gt;&lt;/tr&gt;&lt;/tbody&gt;&lt;/table&gt;&lt;table&gt;&lt;tbody&gt;&lt;tr&gt;&lt;td&gt;specialAssistance&lt;/td&gt;&lt;td&gt;VARCHAR(255)&lt;/td&gt;&lt;td&gt;&lt;/td&gt;&lt;/tr&gt;&lt;/tbody&gt;&lt;/table&gt;&lt;table&gt;&lt;tbody&gt;&lt;tr&gt;&lt;td&gt;frequentFlyerNumber&lt;/td&gt;&lt;td&gt;VARCHAR(255)&lt;/td&gt;&lt;td&gt;&lt;/td&gt;&lt;/tr&gt;&lt;/tbody&gt;&lt;/table&gt;" style="text;html=1;align=center;verticalAlign=middle;resizable=0;points=[];autosize=1;strokeColor=none;fillColor=none;" vertex="1" parent="PRZv4TfnZBLt8YBP0bfV-16">
          <mxGeometry x="-10" y="30" width="340" height="90" as="geometry" />
        </mxCell>
      </root>
    </mxGraphModel>
  </diagram>
</mxfile>
